<svg width="22" height="19" viewBox="0 0 22 19" fill="none" xmlns="http://www.w3.org/2000/svg">
<path d="M17.15 0.349941L13.15 4.34994C13.05 4.44994 13 4.56994 13 4.70994V12.8799C13 13.3099 13.51 13.5399 13.83 13.2499L17.83 9.64994C17.94 9.55994 18 9.41994 18 9.27994V0.709941C18 0.259941 17.46 0.0399407 17.15 0.349941ZM21.47 4.19994C21 3.95994 20.51 3.75994 20 3.58994V15.6199C18.86 15.2099 17.69 14.9999 16.5 14.9999C14.6 14.9999 12.72 15.5399 11 16.5799V4.47994C9.38 3.54994 7.51 2.99994 5.5 2.99994C3.71 2.99994 2.02 3.43994 0.53 4.19994C0.2 4.35994 0 4.70994 0 5.07994V17.1599C0 17.9199 0.81 18.3899 1.48 18.0299C2.69 17.3999 4.05 16.9999 5.5 16.9999C7.57 16.9999 9.48 17.8199 11 18.9999C12.52 17.8199 14.43 16.9999 16.5 16.9999C17.95 16.9999 19.31 17.3999 20.52 18.0399C21.19 18.3999 22 17.9299 22 17.1699V5.07994C22 4.70994 21.8 4.35994 21.47 4.19994Z" fill="url(#paint0_linear_17_188)"/>
<defs>
<linearGradient id="paint0_linear_17_188" x1="0" y1="9.60263" x2="22" y2="9.60263" gradientUnits="userSpaceOnUse">
<stop stop-color="#F7CD3C"/>
<stop offset="1" stop-color="#CB9F03"/>
</linearGradient>
</defs>
</svg>
