<svg width="216" height="67" viewBox="0 0 216 67" fill="none" xmlns="http://www.w3.org/2000/svg">
<path d="M20.752 35.04H16.656V52H6.16003L0.5 0L20.688 7.64801C26.7467 7.64801 39 1 41.68 1.73151e-05C41 3.50002 38.928 16.5867 38.928 21.152C38.928 24.0107 38.2454 26.4 36.88 28.32C35.5147 30.1973 33.36 31.7973 30.416 33.12L41.68 52H29.84L20.752 35.04ZM16.656 27.808H21.072C23.4187 27.808 25.168 27.2747 26.32 26.208C27.5147 25.1413 28.112 23.456 28.112 21.152C28.112 19.0187 27.472 17.4613 26.192 16.48C24.9547 15.4987 23.0347 15.008 20.432 15.008H16.656V27.808Z" fill="#141414"/>
<path d="M71.851 42.144C71.851 43.424 72.0217 44.3627 72.363 44.96C72.747 45.5573 73.3444 46.0053 74.155 46.304L72.043 52.896C69.9524 52.7253 68.2457 52.2773 66.923 51.552C65.6004 50.784 64.5764 49.5893 63.851 47.968C61.6324 51.3813 58.219 53.088 53.611 53.088C50.2404 53.088 47.5524 52.1067 45.547 50.144C43.5417 48.1813 42.539 45.6213 42.539 42.464C42.539 38.752 43.9044 35.9147 46.635 33.952C49.3657 31.9893 53.3124 31.008 58.475 31.008H61.931V29.536C61.931 27.5307 61.5044 26.1653 60.651 25.44C59.7977 24.672 58.3044 24.288 56.171 24.288C55.0617 24.288 53.7177 24.4587 52.139 24.8C50.5604 25.0987 48.939 25.5253 47.275 26.08L44.971 19.424C47.1044 18.6133 49.2804 17.9947 51.499 17.568C53.7604 17.1413 55.851 16.928 57.771 16.928C62.635 16.928 66.1977 17.9307 68.459 19.936C70.7204 21.9413 71.851 24.9493 71.851 28.96V42.144ZM56.555 45.856C58.859 45.856 60.651 44.768 61.931 42.592V36.576H59.435C57.131 36.576 55.403 36.9813 54.251 37.792C53.1417 38.6027 52.587 39.8613 52.587 41.568C52.587 42.9333 52.9284 44 53.611 44.768C54.3364 45.4933 55.3177 45.856 56.555 45.856Z" fill="#141414"/>
<path d="M99.1055 16.928C103.372 16.928 106.551 18.5067 108.642 21.664C110.732 24.8213 111.778 29.2373 111.778 34.912C111.778 38.4107 111.223 41.5467 110.114 44.32C109.047 47.0507 107.49 49.2053 105.442 50.784C103.394 52.32 101.004 53.088 98.2735 53.088C94.8602 53.088 92.1082 51.9147 90.0175 49.568V65.12L79.9055 66.208V18.016H88.8015L89.3135 21.792C90.6362 20.128 92.1509 18.912 93.8575 18.144C95.5642 17.3333 97.3135 16.928 99.1055 16.928ZM95.2015 45.664C99.2549 45.664 101.282 42.1227 101.282 35.04C101.282 31.0293 100.834 28.256 99.9375 26.72C99.0415 25.1413 97.6975 24.352 95.9055 24.352C94.7535 24.352 93.6655 24.6933 92.6415 25.376C91.6602 26.0587 90.7855 27.04 90.0175 28.32V42.656C91.3829 44.6613 93.1109 45.664 95.2015 45.664Z" fill="#141414"/>
<path d="M132.813 16.928C138.018 16.928 142.093 18.528 145.037 21.728C147.981 24.8853 149.453 29.3227 149.453 35.04C149.453 38.6667 148.77 41.8453 147.405 44.576C146.082 47.264 144.162 49.3547 141.645 50.848C139.17 52.3413 136.226 53.088 132.813 53.088C127.65 53.088 123.576 51.5093 120.589 48.352C117.645 45.152 116.173 40.6933 116.173 34.976C116.173 31.3493 116.834 28.192 118.157 25.504C119.522 22.7733 121.442 20.6613 123.917 19.168C126.434 17.6747 129.4 16.928 132.813 16.928ZM132.813 24.352C130.765 24.352 129.229 25.2267 128.205 26.976C127.181 28.6827 126.669 31.3493 126.669 34.976C126.669 38.688 127.16 41.3973 128.141 43.104C129.165 44.8107 130.722 45.664 132.813 45.664C134.861 45.664 136.397 44.8107 137.421 43.104C138.445 41.3547 138.957 38.6667 138.957 35.04C138.957 31.328 138.445 28.6187 137.421 26.912C136.44 25.2053 134.904 24.352 132.813 24.352Z" fill="#141414"/>
<path d="M167.436 16.928C169.868 16.928 172.151 17.2907 174.284 18.016C176.417 18.7413 178.295 19.7653 179.916 21.088L176.204 26.784C173.431 25.0347 170.636 24.16 167.82 24.16C166.497 24.16 165.473 24.3947 164.748 24.864C164.065 25.2907 163.724 25.9093 163.724 26.72C163.724 27.36 163.873 27.8933 164.172 28.32C164.513 28.704 165.175 29.1093 166.156 29.536C167.137 29.9627 168.652 30.4747 170.7 31.072C174.241 32.096 176.865 33.44 178.572 35.104C180.321 36.7253 181.196 38.9867 181.196 41.888C181.196 44.192 180.535 46.1973 179.212 47.904C177.889 49.568 176.076 50.848 173.772 51.744C171.468 52.64 168.908 53.088 166.092 53.088C163.233 53.088 160.567 52.64 158.092 51.744C155.66 50.848 153.591 49.6107 151.884 48.032L156.812 42.528C159.671 44.7467 162.679 45.856 165.836 45.856C167.372 45.856 168.567 45.5787 169.42 45.024C170.316 44.4693 170.764 43.68 170.764 42.656C170.764 41.8453 170.593 41.2053 170.252 40.736C169.911 40.2667 169.249 39.84 168.268 39.456C167.287 39.0293 165.729 38.5173 163.596 37.92C160.225 36.9387 157.708 35.5733 156.044 33.824C154.38 32.0747 153.548 29.8987 153.548 27.296C153.548 25.3333 154.103 23.584 155.212 22.048C156.364 20.4693 157.985 19.232 160.076 18.336C162.209 17.3973 164.663 16.928 167.436 16.928Z" fill="#141414"/>
<path d="M212.789 42.144C212.789 43.424 212.959 44.3627 213.301 44.96C213.685 45.5573 214.282 46.0053 215.093 46.304L212.981 52.896C210.89 52.7253 209.183 52.2773 207.861 51.552C206.538 50.784 205.514 49.5893 204.789 47.968C202.57 51.3813 199.157 53.088 194.549 53.088C191.178 53.088 188.49 52.1067 186.485 50.144C184.479 48.1813 183.477 45.6213 183.477 42.464C183.477 38.752 184.842 35.9147 187.573 33.952C190.303 31.9893 194.25 31.008 199.413 31.008H202.869V29.536C202.869 27.5307 202.442 26.1653 201.589 25.44C200.735 24.672 199.242 24.288 197.109 24.288C195.999 24.288 194.655 24.4587 193.077 24.8C191.498 25.0987 189.877 25.5253 188.213 26.08L185.909 19.424C188.042 18.6133 190.218 17.9947 192.437 17.568C194.698 17.1413 196.789 16.928 198.709 16.928C203.573 16.928 207.135 17.9307 209.397 19.936C211.658 21.9413 212.789 24.9493 212.789 28.96V42.144ZM197.493 45.856C199.797 45.856 201.589 44.768 202.869 42.592V36.576H200.373C198.069 36.576 196.341 36.9813 195.189 37.792C194.079 38.6027 193.525 39.8613 193.525 41.568C193.525 42.9333 193.866 44 194.549 44.768C195.274 45.4933 196.255 45.856 197.493 45.856Z" fill="#141414"/>
</svg>
